<?xml version="1.0" encoding="UTF-8" standalone="no"?>
<svg xmlns="http://www.w3.org/2000/svg" width="200" height="60" viewBox="0 0 200 60">
  <!-- Background -->
  <rect width="200" height="60" rx="5" ry="5" fill="#000000" />
  
  <!-- Netflix-inspired text -->
  <g fill="#E50914">
    <!-- P letter -->
    <path d="M 20,10 L 20,50 L 25,50 L 25,35 L 35,35 C 40,35 45,30 45,25 C 45,20 40,15 35,15 L 20,10 Z M 25,15 L 35,15 C 37.5,15 40,17.5 40,20 C 40,22.5 37.5,25 35,25 L 25,25 L 25,15 Z" />
    
    <!-- O letter -->
    <path d="M 60,15 C 52.5,15 45,20 45,30 C 45,40 52.5,45 60,45 C 67.5,45 75,40 75,30 C 75,20 67.5,15 60,15 Z M 60,20 C 65,20 70,23.75 70,30 C 70,36.25 65,40 60,40 C 55,40 50,36.25 50,30 C 50,23.75 55,20 60,20 Z" />
    
    <!-- R letter -->
    <path d="M 80,15 L 80,45 L 85,45 L 85,35 L 90,35 L 100,45 L 107.5,45 L 95,33 C 100,32 105,28.75 105,25 C 105,20 100,15 95,15 L 80,15 Z M 85,20 L 95,20 C 97.5,20 100,21.25 100,25 C 100,28.75 97.5,30 95,30 L 85,30 L 85,20 Z" />
    
    <!-- T letter -->
    <path d="M 110,15 L 110,20 L 120,20 L 120,45 L 125,45 L 125,20 L 135,20 L 135,15 L 110,15 Z" />
    
    <!-- F letter -->
    <path d="M 140,15 L 140,45 L 145,45 L 145,32.5 L 155,32.5 L 155,27.5 L 145,27.5 L 145,20 L 160,20 L 160,15 L 140,15 Z" />
    
    <!-- Stylized dot at the end -->
    <circle cx="170" cy="30" r="6" />
  </g>
</svg> 